<svg width="32" height="32" viewBox="0 0 32 32" fill="none" xmlns="http://www.w3.org/2000/svg">
<path d="M16.0002 5.33334C17.4147 5.33334 18.7712 5.89525 19.7714 6.89544C20.7716 7.89563 21.3335 9.25219 21.3335 10.6667C21.3335 12.0812 20.7716 13.4377 19.7714 14.4379C18.7712 15.4381 17.4147 16 16.0002 16C14.5857 16 13.2291 15.4381 12.2289 14.4379C11.2287 13.4377 10.6668 12.0812 10.6668 10.6667C10.6668 9.25219 11.2287 7.89563 12.2289 6.89544C13.2291 5.89525 14.5857 5.33334 16.0002 5.33334ZM16.0002 18.6667C21.8935 18.6667 26.6668 21.0533 26.6668 24V26.6667H5.3335V24C5.3335 21.0533 10.1068 18.6667 16.0002 18.6667Z" fill="#FBF5E2"/>
</svg>
